<?xml version="1.0" encoding="iso-8859-1"?>
<!-- Generator: Adobe Illustrator 24.1.1, SVG Export Plug-In . SVG Version: 6.00 Build 0)  -->
<svg version="1.0" id="Shapes" xmlns="http://www.w3.org/2000/svg" xmlns:xlink="http://www.w3.org/1999/xlink" x="0px" y="0px"
	 viewBox="0 0 1366 768" enable-background="new 0 0 1366 768" xml:space="preserve">
<image display="none" overflow="visible" width="1166" height="880" xlink:href="../../../../Users/pc/Desktop/vector-lines-1.jpg"  transform="matrix(0.8727 0 0 0.8727 134.2857 0)">
</image>
<g id="Rects">
	<path fill="none" stroke="#B8B7E0" stroke-width="0.7913" stroke-miterlimit="10" d="M824.052,145.024l-47.321,27.212
		c-10.222,5.878-22.802,5.875-33.027-0.008l-47.335-27.236c-6.288-3.618-6.29-12.689-0.004-16.304l47.081-27.074
		c10.371-5.964,23.133-5.96,33.507,0.009l47.095,27.098C830.335,132.338,830.338,141.409,824.052,145.024z"/>
	<path fill="none" stroke="#B8B7E0" stroke-width="0.7913" stroke-miterlimit="10" d="M356.101,325.13l-47.321,27.212
		c-10.222,5.878-22.802,5.875-33.027-0.008l-47.335-27.236c-6.288-3.618-6.29-12.689-0.004-16.304l47.081-27.074
		c10.371-5.964,23.133-5.96,33.507,0.009l47.095,27.098C362.385,312.445,362.387,321.516,356.101,325.13z"/>
	<path fill="none" stroke="#B8B7E0" stroke-width="0.7913" stroke-miterlimit="10" d="M278.262,279.2l-47.321,27.212
		c-10.222,5.878-22.802,5.875-33.027-0.008l-47.335-27.236c-6.288-3.618-6.29-12.689-0.004-16.304l47.081-27.074
		c10.371-5.964,23.133-5.96,33.507,0.009l47.095,27.098C284.545,266.514,284.548,275.585,278.262,279.2z"/>
	<path fill="none" stroke="#B8B7E0" stroke-width="0.7913" stroke-miterlimit="10" d="M1057.657,459.64l-47.321,27.212
		c-10.222,5.878-22.802,5.875-33.027-0.008l-47.335-27.236c-6.288-3.618-6.29-12.689-0.004-16.304l47.081-27.074
		c10.371-5.964,23.133-5.96,33.507,0.009l47.095,27.098C1063.94,446.955,1063.943,456.026,1057.657,459.64z"/>
	<path fill="none" stroke="#B8B7E0" stroke-width="0.7913" stroke-miterlimit="10" d="M1135.494,504.34l-47.321,27.212
		c-10.222,5.878-22.802,5.875-33.027-0.008l-47.335-27.236c-6.288-3.618-6.29-12.689-0.004-16.304l47.081-27.074
		c10.371-5.964,23.133-5.96,33.507,0.009l47.095,27.098C1141.777,491.655,1141.78,500.726,1135.494,504.34z"/>
	<path fill="none" stroke="#B8B7E0" stroke-width="0.7913" stroke-miterlimit="10" d="M357.101,684.703l-47.321,27.212
		c-10.222,5.878-22.802,5.875-33.027-0.008l-47.335-27.236c-6.288-3.618-6.29-12.689-0.004-16.304l47.081-27.074
		c10.371-5.964,23.133-5.96,33.507,0.009l47.095,27.098C363.385,672.017,363.387,681.088,357.101,684.703z"/>
	<path fill="none" stroke="#B8B7E0" stroke-width="0.7913" stroke-miterlimit="10" d="M511.939,594.277l-47.321,27.212
		c-10.222,5.878-22.802,5.875-33.027-0.008l-47.335-27.236c-6.288-3.618-6.29-12.689-0.004-16.304l47.081-27.074
		c10.371-5.964,23.133-5.96,33.507,0.009l47.095,27.098C518.222,581.591,518.225,590.662,511.939,594.277z"/>
	<path fill="none" stroke="#B8B7E0" stroke-width="0.7913" stroke-miterlimit="10" d="M901.56,639.592l-47.321,27.212
		c-10.222,5.878-22.802,5.875-33.027-0.008l-47.335-27.236c-6.288-3.618-6.29-12.689-0.004-16.304l47.081-27.074
		c10.371-5.964,23.133-5.96,33.507,0.009l47.094,27.098C907.843,626.906,907.845,635.977,901.56,639.592z"/>
</g>
<g id="Circles">
	<circle fill="#D1D5DB" cx="215.041" cy="226.041" r="2.203"/>
	<circle fill="#D1D5DB" cx="292.258" cy="181.349" r="2.203"/>
	<circle fill="#D1D5DB" cx="370.535" cy="136.14" r="2.203"/>
	<circle fill="#D1D5DB" cx="448.116" cy="91.767" r="2.203"/>
	<circle fill="#D1D5DB" cx="526.256" cy="46.558" r="2.203"/>
	<circle fill="#D1D5DB" cx="604.116" cy="2.203" r="2.203"/>
	<circle fill="#D1D5DB" cx="292.997" cy="271.081" r="2.203"/>
	<circle fill="#D1D5DB" cx="370.214" cy="226.39" r="2.203"/>
	<circle fill="#D1D5DB" cx="448.491" cy="181.18" r="2.203"/>
	<circle fill="#D1D5DB" cx="526.073" cy="136.808" r="2.203"/>
	<circle fill="#D1D5DB" cx="604.212" cy="91.599" r="2.203"/>
	<circle fill="#D1D5DB" cx="682.073" cy="47.244" r="2.203"/>
	<circle fill="#D1D5DB" cx="292.258" cy="362.18" r="2.203"/>
	<circle fill="#D1D5DB" cx="370.475" cy="316.488" r="2.203"/>
	<circle fill="#D1D5DB" cx="448.752" cy="271.279" r="2.203"/>
	<circle fill="#D1D5DB" cx="526.334" cy="226.907" r="2.203"/>
	<circle fill="#D1D5DB" cx="604.473" cy="181.698" r="2.203"/>
	<circle fill="#D1D5DB" cx="682.334" cy="137.343" r="2.203"/>
	<circle fill="#D1D5DB" cx="214.419" cy="316.999" r="2.203"/>
	<circle fill="#D1D5DB" cx="137.072" cy="271.069" r="2.203"/>
	<circle fill="#D1D5DB" cx="136.489" cy="542.326" r="2.203"/>
	<circle fill="#D1D5DB" cx="214.706" cy="496.634" r="2.203"/>
	<circle fill="#D1D5DB" cx="292.983" cy="451.425" r="2.203"/>
	<circle fill="#D1D5DB" cx="370.565" cy="407.052" r="2.203"/>
	<circle fill="#D1D5DB" cx="448.704" cy="361.843" r="2.203"/>
	<circle fill="#D1D5DB" cx="526.565" cy="317.488" r="2.203"/>
	<circle fill="#D1D5DB" cx="137.072" cy="452.262" r="2.203"/>
	<circle fill="#D1D5DB" cx="215.349" cy="407.052" r="2.203"/>
	<circle fill="#D1D5DB" cx="137.072" cy="362.18" r="2.203"/>
	<circle fill="#D1D5DB" cx="604.279" cy="271.125" r="2.203"/>
	<circle fill="#D1D5DB" cx="682.556" cy="225.916" r="2.203"/>
	<circle fill="#D1D5DB" cx="760.138" cy="181.544" r="2.203"/>
	<circle fill="#D1D5DB" cx="838.277" cy="136.334" r="2.203"/>
	<circle fill="#D1D5DB" cx="916.138" cy="91.979" r="2.203"/>
	<circle fill="#D1D5DB" cx="136.427" cy="632.226" r="2.203"/>
	<circle fill="#D1D5DB" cx="214.644" cy="586.534" r="2.203"/>
	<circle fill="#D1D5DB" cx="292.921" cy="541.324" r="2.203"/>
	<circle fill="#D1D5DB" cx="370.503" cy="496.952" r="2.203"/>
	<circle fill="#D1D5DB" cx="448.642" cy="451.743" r="2.203"/>
	<circle fill="#D1D5DB" cx="526.503" cy="407.388" r="2.203"/>
	<circle fill="#D1D5DB" cx="604.217" cy="361.025" r="2.203"/>
	<circle fill="#D1D5DB" cx="682.494" cy="315.816" r="2.203"/>
	<circle fill="#D1D5DB" cx="760.076" cy="271.443" r="2.203"/>
	<circle fill="#D1D5DB" cx="838.215" cy="226.234" r="2.203"/>
	<circle fill="#D1D5DB" cx="916.076" cy="181.879" r="2.203"/>
	<circle fill="#D1D5DB" cx="136.509" cy="721.382" r="2.203"/>
	<circle fill="#D1D5DB" cx="214.727" cy="675.691" r="2.203"/>
	<circle fill="#D1D5DB" cx="293.004" cy="630.481" r="2.203"/>
	<circle fill="#D1D5DB" cx="370.585" cy="586.109" r="2.203"/>
	<circle fill="#D1D5DB" cx="448.725" cy="540.9" r="2.203"/>
	<circle fill="#D1D5DB" cx="526.585" cy="496.545" r="2.203"/>
	<circle fill="#D1D5DB" cx="604.299" cy="450.182" r="2.203"/>
	<circle fill="#D1D5DB" cx="682.576" cy="404.972" r="2.203"/>
	<circle fill="#D1D5DB" cx="760.158" cy="360.6" r="2.203"/>
	<circle fill="#D1D5DB" cx="838.297" cy="315.391" r="2.203"/>
	<circle fill="#D1D5DB" cx="916.158" cy="271.036" r="2.203"/>
	<circle fill="#D1D5DB" cx="214.495" cy="767.295" r="2.203"/>
	<circle fill="#D1D5DB" cx="292.713" cy="721.604" r="2.203"/>
	<circle fill="#D1D5DB" cx="370.99" cy="676.394" r="2.203"/>
	<circle fill="#D1D5DB" cx="448.571" cy="632.022" r="2.203"/>
	<circle fill="#D1D5DB" cx="526.711" cy="586.813" r="2.203"/>
	<circle fill="#D1D5DB" cx="604.571" cy="542.458" r="2.203"/>
	<circle fill="#D1D5DB" cx="682.286" cy="496.095" r="2.203"/>
	<circle fill="#D1D5DB" cx="760.563" cy="450.885" r="2.203"/>
	<circle fill="#D1D5DB" cx="838.144" cy="406.513" r="2.203"/>
	<circle fill="#D1D5DB" cx="916.283" cy="361.304" r="2.203"/>
	<circle fill="#D1D5DB" cx="994.144" cy="316.949" r="2.203"/>
	<circle fill="#D1D5DB" cx="370.738" cy="768.276" r="2.203"/>
	<circle fill="#D1D5DB" cx="448.956" cy="722.585" r="2.203"/>
	<circle fill="#D1D5DB" cx="527.233" cy="677.375" r="2.203"/>
	<circle fill="#D1D5DB" cx="604.814" cy="633.003" r="2.203"/>
	<circle fill="#D1D5DB" cx="682.953" cy="587.794" r="2.203"/>
	<circle fill="#D1D5DB" cx="760.814" cy="543.439" r="2.203"/>
	<circle fill="#D1D5DB" cx="838.528" cy="497.076" r="2.203"/>
	<circle fill="#D1D5DB" cx="916.805" cy="451.866" r="2.203"/>
	<circle fill="#D1D5DB" cx="993.387" cy="406.494" r="2.203"/>
	<circle fill="#D1D5DB" cx="1071.651" cy="361.451" r="2.203"/>
	<circle fill="#D1D5DB" cx="1149.289" cy="316.949" r="2.203"/>
	<circle fill="#D1D5DB" cx="524.797" cy="768.276" r="2.203"/>
	<circle fill="#D1D5DB" cx="603.014" cy="722.585" r="2.203"/>
	<circle fill="#D1D5DB" cx="681.291" cy="677.375" r="2.203"/>
	<circle fill="#D1D5DB" cx="758.872" cy="633.003" r="2.203"/>
	<circle fill="#D1D5DB" cx="837.012" cy="587.794" r="2.203"/>
	<circle fill="#D1D5DB" cx="914.872" cy="543.439" r="2.203"/>
	<circle fill="#D1D5DB" cx="993.587" cy="497.076" r="2.203"/>
	<circle fill="#D1D5DB" cx="1071.651" cy="451.509" r="2.203"/>
	<circle fill="#D1D5DB" cx="1149.289" cy="406.512" r="2.203"/>
	<circle fill="#D1D5DB" cx="681.499" cy="767.276" r="2.203"/>
	<circle fill="#D1D5DB" cx="759.716" cy="721.585" r="2.203"/>
	<circle fill="#D1D5DB" cx="837.993" cy="676.375" r="2.203"/>
	<circle fill="#D1D5DB" cx="915.574" cy="632.003" r="2.203"/>
	<circle fill="#D1D5DB" cx="993.714" cy="586.794" r="2.203"/>
	<circle fill="#D1D5DB" cx="1071.574" cy="542.439" r="2.203"/>
	<circle fill="#D1D5DB" cx="1149.289" cy="496.076" r="2.203"/>
	<circle fill="#D1D5DB" cx="837.742" cy="768.114" r="2.203"/>
	<circle fill="#D1D5DB" cx="915.959" cy="722.422" r="2.203"/>
	<circle fill="#D1D5DB" cx="994.236" cy="677.213" r="2.203"/>
	<circle fill="#D1D5DB" cx="1071.817" cy="632.84" r="2.203"/>
	<circle fill="#D1D5DB" cx="1149.957" cy="587.631" r="2.203"/>
	<circle fill="#D1D5DB" cx="1539.53" cy="362.122" r="2.203"/>
	<circle fill="#D1D5DB" cx="1617.39" cy="317.767" r="2.203"/>
	<circle fill="#D1D5DB" cx="992.79" cy="768.276" r="2.203"/>
	<circle fill="#D1D5DB" cx="1071.007" cy="722.585" r="2.203"/>
	<circle fill="#D1D5DB" cx="1149.284" cy="677.375" r="2.203"/>
	<circle fill="#D1D5DB" cx="760.076" cy="91.599" r="2.203"/>
	<circle fill="#D1D5DB" cx="994.144" cy="226.234" r="2.203"/>
	<circle fill="#D1D5DB" cx="1072.526" cy="271.036" r="2.203"/>
</g>
</svg>
